<svg width="95" height="95" viewBox="0 0 95 95" fill="none" xmlns="http://www.w3.org/2000/svg">
<g clip-path="url(#clip0_522_6360)">
<path d="M95 31.7H0" stroke="white" stroke-width="0.0395833" stroke-miterlimit="10"/>
<path d="M95 47.5H0" stroke="white" stroke-width="0.0395833" stroke-miterlimit="10"/>
<path d="M95 63.3H0" stroke="white" stroke-width="0.0395833" stroke-miterlimit="10"/>
<path d="M63.3 95V0" stroke="white" stroke-width="0.0395833" stroke-miterlimit="10"/>
<path d="M47.5 95V0" stroke="white" stroke-width="0.0395833" stroke-miterlimit="10"/>
<path d="M31.7 95V0" stroke="white" stroke-width="0.0395833" stroke-miterlimit="10"/>
<path d="M95 95V0H0V95H95Z" stroke="white" stroke-width="0.0197917" stroke-miterlimit="10"/>
<path d="M95 4H0" stroke="white" stroke-width="0.0197917" stroke-miterlimit="10"/>
<path d="M95 7.89999H0" stroke="white" stroke-width="0.0197917" stroke-miterlimit="10"/>
<path d="M95 11.9H0" stroke="white" stroke-width="0.0197917" stroke-miterlimit="10"/>
<path d="M95 15.8H0" stroke="white" stroke-width="0.0197917" stroke-miterlimit="10"/>
<path d="M95 19.8H0" stroke="white" stroke-width="0.0197917" stroke-miterlimit="10"/>
<path d="M95 23.8H0" stroke="white" stroke-width="0.0197917" stroke-miterlimit="10"/>
<path d="M95 27.7H0" stroke="white" stroke-width="0.0197917" stroke-miterlimit="10"/>
<path d="M95 35.6H0" stroke="white" stroke-width="0.0197917" stroke-miterlimit="10"/>
<path d="M95 39.6H0" stroke="white" stroke-width="0.0197917" stroke-miterlimit="10"/>
<path d="M95 43.6H0" stroke="white" stroke-width="0.0197917" stroke-miterlimit="10"/>
<path d="M95 51.5H0" stroke="white" stroke-width="0.0197917" stroke-miterlimit="10"/>
<path d="M95 55.4H0" stroke="white" stroke-width="0.0197917" stroke-miterlimit="10"/>
<path d="M95 59.4H0" stroke="white" stroke-width="0.0197917" stroke-miterlimit="10"/>
<path d="M95 67.3H0" stroke="white" stroke-width="0.0197917" stroke-miterlimit="10"/>
<path d="M95 71.3H0" stroke="white" stroke-width="0.0197917" stroke-miterlimit="10"/>
<path d="M95 75.2H0" stroke="white" stroke-width="0.0197917" stroke-miterlimit="10"/>
<path d="M95 79.2H0" stroke="white" stroke-width="0.0197917" stroke-miterlimit="10"/>
<path d="M95 83.1H0" stroke="white" stroke-width="0.0197917" stroke-miterlimit="10"/>
<path d="M95 87.1H0" stroke="white" stroke-width="0.0197917" stroke-miterlimit="10"/>
<path d="M95 91.1H0" stroke="white" stroke-width="0.0197917" stroke-miterlimit="10"/>
<path d="M91.1001 95V0" stroke="white" stroke-width="0.0197917" stroke-miterlimit="10"/>
<path d="M87.1001 95V0" stroke="white" stroke-width="0.0197917" stroke-miterlimit="10"/>
<path d="M83.1001 95V0" stroke="white" stroke-width="0.0197917" stroke-miterlimit="10"/>
<path d="M79.2 95V0" stroke="white" stroke-width="0.0197917" stroke-miterlimit="10"/>
<path d="M75.2 95V0" stroke="white" stroke-width="0.0197917" stroke-miterlimit="10"/>
<path d="M71.3 95V0" stroke="white" stroke-width="0.0197917" stroke-miterlimit="10"/>
<path d="M67.3 95V0" stroke="white" stroke-width="0.0197917" stroke-miterlimit="10"/>
<path d="M59.3999 95V0" stroke="white" stroke-width="0.0197917" stroke-miterlimit="10"/>
<path d="M55.3999 95V0" stroke="white" stroke-width="0.0197917" stroke-miterlimit="10"/>
<path d="M51.5 95V0" stroke="white" stroke-width="0.0197917" stroke-miterlimit="10"/>
<path d="M43.6001 95V0" stroke="white" stroke-width="0.0197917" stroke-miterlimit="10"/>
<path d="M39.6001 95V0" stroke="white" stroke-width="0.0197917" stroke-miterlimit="10"/>
<path d="M35.6001 95V0" stroke="white" stroke-width="0.0197917" stroke-miterlimit="10"/>
<path d="M27.7 95V0" stroke="white" stroke-width="0.0197917" stroke-miterlimit="10"/>
<path d="M23.8 95V0" stroke="white" stroke-width="0.0197917" stroke-miterlimit="10"/>
<path d="M19.8 95V0" stroke="white" stroke-width="0.0197917" stroke-miterlimit="10"/>
<path d="M15.8 95V0" stroke="white" stroke-width="0.0197917" stroke-miterlimit="10"/>
<path d="M11.8999 95V0" stroke="white" stroke-width="0.0197917" stroke-miterlimit="10"/>
<path d="M7.8999 95V0" stroke="white" stroke-width="0.0197917" stroke-miterlimit="10"/>
<path d="M4 95V0" stroke="white" stroke-width="0.0197917" stroke-miterlimit="10"/>
<path d="M95 0L0 95" stroke="white" stroke-width="0.0197917" stroke-miterlimit="10"/>
<path d="M95 95L0 0" stroke="white" stroke-width="0.0197917" stroke-miterlimit="10"/>
<path d="M47.5 67.3C58.4 67.3 67.3 58.4 67.3 47.5C67.3 36.6 58.4 27.7 47.5 27.7C36.6 27.7 27.7 36.6 27.7 47.5C27.7 58.4 36.6 67.3 47.5 67.3Z" stroke="white" stroke-width="0.0197917" stroke-miterlimit="10"/>
<path d="M47.5 79C64.9 79 79 64.9 79 47.5C79 30.1 64.9 16 47.5 16C30.1 16 16 30.1 16 47.5C16 64.9 30.1 79 47.5 79Z" stroke="white" stroke-width="0.0315" stroke-miterlimit="10"/>
<path d="M83.0999 15.8H11.8999V78.8H83.0999V15.8Z" stroke="white" stroke-width="0.0395833" stroke-miterlimit="10"/>
<path d="M69.5999 72.5H25.2999C22.4999 72.5 20.2 70.2 20.2 67.4V49.2C20.2 48.8 20.5 48.5 20.9 48.5H73.9C74.3 48.5 74.5999 48.8 74.5999 49.2V67.3C74.6999 70.2 72.3999 72.5 69.5999 72.5Z" stroke="white" stroke-width="4.8254" stroke-miterlimit="10"/>
<path d="M23.8999 70.6V78" stroke="white" stroke-width="4.8254" stroke-miterlimit="10"/>
<path d="M70.8999 70.6V78" stroke="white" stroke-width="4.8254" stroke-miterlimit="10"/>
<path d="M11.8999 48.5H82.8999" stroke="white" stroke-width="4.8254" stroke-miterlimit="10"/>
<path d="M46.7 31.3V27C46.7 22 50.7 18 55.7 18C60.7 18 64.6999 22 64.6999 27V47" stroke="white" stroke-width="4.8254" stroke-miterlimit="10"/>
</g>
<defs>
<clipPath id="clip0_522_6360">
<rect width="95" height="95" fill="white"/>
</clipPath>
</defs>
</svg>
