<svg width="95" height="95" viewBox="0 0 95 95" fill="none" xmlns="http://www.w3.org/2000/svg">
<g clip-path="url(#clip0_846_1391)">
<path d="M95 31.7H0" stroke="white" stroke-width="0.0395833" stroke-miterlimit="10"/>
<path d="M95 47.5H0" stroke="white" stroke-width="0.0395833" stroke-miterlimit="10"/>
<path d="M95 63.3H0" stroke="white" stroke-width="0.0395833" stroke-miterlimit="10"/>
<path d="M63.3 95V0" stroke="white" stroke-width="0.0395833" stroke-miterlimit="10"/>
<path d="M47.5 95V0" stroke="white" stroke-width="0.0395833" stroke-miterlimit="10"/>
<path d="M31.7 95V0" stroke="white" stroke-width="0.0395833" stroke-miterlimit="10"/>
<path d="M95 95V0H0V95H95Z" stroke="white" stroke-width="0.0197917" stroke-miterlimit="10"/>
<path d="M95 4H0" stroke="white" stroke-width="0.0197917" stroke-miterlimit="10"/>
<path d="M95 7.90002H0" stroke="white" stroke-width="0.0197917" stroke-miterlimit="10"/>
<path d="M95 11.9H0" stroke="white" stroke-width="0.0197917" stroke-miterlimit="10"/>
<path d="M95 15.8H0" stroke="white" stroke-width="0.0197917" stroke-miterlimit="10"/>
<path d="M95 19.8H0" stroke="white" stroke-width="0.0197917" stroke-miterlimit="10"/>
<path d="M95 23.8H0" stroke="white" stroke-width="0.0197917" stroke-miterlimit="10"/>
<path d="M95 27.7H0" stroke="white" stroke-width="0.0197917" stroke-miterlimit="10"/>
<path d="M95 35.6H0" stroke="white" stroke-width="0.0197917" stroke-miterlimit="10"/>
<path d="M95 39.6H0" stroke="white" stroke-width="0.0197917" stroke-miterlimit="10"/>
<path d="M95 43.6H0" stroke="white" stroke-width="0.0197917" stroke-miterlimit="10"/>
<path d="M95 51.5H0" stroke="white" stroke-width="0.0197917" stroke-miterlimit="10"/>
<path d="M95 55.4H0" stroke="white" stroke-width="0.0197917" stroke-miterlimit="10"/>
<path d="M95 59.4H0" stroke="white" stroke-width="0.0197917" stroke-miterlimit="10"/>
<path d="M95 67.3H0" stroke="white" stroke-width="0.0197917" stroke-miterlimit="10"/>
<path d="M95 71.3H0" stroke="white" stroke-width="0.0197917" stroke-miterlimit="10"/>
<path d="M95 75.2H0" stroke="white" stroke-width="0.0197917" stroke-miterlimit="10"/>
<path d="M95 79.2H0" stroke="white" stroke-width="0.0197917" stroke-miterlimit="10"/>
<path d="M95 83.1H0" stroke="white" stroke-width="0.0197917" stroke-miterlimit="10"/>
<path d="M95 87.1H0" stroke="white" stroke-width="0.0197917" stroke-miterlimit="10"/>
<path d="M95 91.1H0" stroke="white" stroke-width="0.0197917" stroke-miterlimit="10"/>
<path d="M91.1001 95V0" stroke="white" stroke-width="0.0197917" stroke-miterlimit="10"/>
<path d="M87.1001 95V0" stroke="white" stroke-width="0.0197917" stroke-miterlimit="10"/>
<path d="M83.1001 95V0" stroke="white" stroke-width="0.0197917" stroke-miterlimit="10"/>
<path d="M79.2 95V0" stroke="white" stroke-width="0.0197917" stroke-miterlimit="10"/>
<path d="M75.2 95V0" stroke="white" stroke-width="0.0197917" stroke-miterlimit="10"/>
<path d="M71.3 95V0" stroke="white" stroke-width="0.0197917" stroke-miterlimit="10"/>
<path d="M67.3 95V0" stroke="white" stroke-width="0.0197917" stroke-miterlimit="10"/>
<path d="M59.3999 95V0" stroke="white" stroke-width="0.0197917" stroke-miterlimit="10"/>
<path d="M55.3999 95V0" stroke="white" stroke-width="0.0197917" stroke-miterlimit="10"/>
<path d="M51.5 95V0" stroke="white" stroke-width="0.0197917" stroke-miterlimit="10"/>
<path d="M43.6001 95V0" stroke="white" stroke-width="0.0197917" stroke-miterlimit="10"/>
<path d="M39.6001 95V0" stroke="white" stroke-width="0.0197917" stroke-miterlimit="10"/>
<path d="M35.6001 95V0" stroke="white" stroke-width="0.0197917" stroke-miterlimit="10"/>
<path d="M27.7 95V0" stroke="white" stroke-width="0.0197917" stroke-miterlimit="10"/>
<path d="M23.8 95V0" stroke="white" stroke-width="0.0197917" stroke-miterlimit="10"/>
<path d="M19.8 95V0" stroke="white" stroke-width="0.0197917" stroke-miterlimit="10"/>
<path d="M15.8 95V0" stroke="white" stroke-width="0.0197917" stroke-miterlimit="10"/>
<path d="M11.8999 95V0" stroke="white" stroke-width="0.0197917" stroke-miterlimit="10"/>
<path d="M7.8999 95V0" stroke="white" stroke-width="0.0197917" stroke-miterlimit="10"/>
<path d="M4 95V0" stroke="white" stroke-width="0.0197917" stroke-miterlimit="10"/>
<path d="M95 0L0 95" stroke="white" stroke-width="0.0197917" stroke-miterlimit="10"/>
<path d="M95 95L0 0" stroke="white" stroke-width="0.0197917" stroke-miterlimit="10"/>
<path d="M47.5 67.3C58.4 67.3 67.3 58.4 67.3 47.5C67.3 36.6 58.4 27.7 47.5 27.7C36.6 27.7 27.7 36.6 27.7 47.5C27.7 58.4 36.6 67.3 47.5 67.3Z" stroke="white" stroke-width="0.0197917" stroke-miterlimit="10"/>
<path d="M47.5 79C64.9 79 79 64.9 79 47.5C79 30.1 64.9 16 47.5 16C30.1 16 16 30.1 16 47.5C16 64.9 30.1 79 47.5 79Z" stroke="white" stroke-width="0.0315" stroke-miterlimit="10"/>
<path d="M83.0999 15.8H11.8999V78.8H83.0999V15.8Z" stroke="white" stroke-width="0.0395833" stroke-miterlimit="10"/>
<g filter="url(#filter0_f_846_1391)">
<ellipse cx="32.2467" cy="60.2594" rx="32.5" ry="31.5" transform="rotate(134.488 32.2467 60.2594)" fill="#97D6FF" fill-opacity="0.27"/>
</g>
<g filter="url(#filter1_f_846_1391)">
<circle cx="0.5" cy="0.5" r="0.5" transform="matrix(0.887182 -0.46142 -0.46142 -0.887182 20.3474 78.0928)" fill="#C4E0F2"/>
</g>
<g filter="url(#filter2_f_846_1391)">
<circle cx="0.5" cy="0.5" r="0.5" transform="matrix(0.887182 -0.46142 -0.46142 -0.887182 27.5874 83.3467)" fill="#C4E0F2"/>
</g>
<g filter="url(#filter3_f_846_1391)">
<circle cx="0.5" cy="0.5" r="0.5" transform="matrix(0.887182 -0.46142 -0.46142 -0.887182 15.7332 69.2217)" fill="#C4E0F2"/>
</g>
<g filter="url(#filter4_f_846_1391)">
<circle cx="0.25" cy="0.25" r="0.25" transform="matrix(0.887182 -0.46142 -0.46142 -0.887182 22.2288 83.878)" fill="#C4E0F2"/>
</g>
<g filter="url(#filter5_f_846_1391)">
<circle cx="0.25" cy="0.25" r="0.25" transform="matrix(0.887182 -0.46142 -0.46142 -0.887182 34.6929 85.3741)" fill="#C4E0F2"/>
</g>
<g filter="url(#filter6_f_846_1391)">
<circle cx="0.25" cy="0.25" r="0.25" transform="matrix(0.887182 -0.46142 -0.46142 -0.887182 14.9172 74.1553)" fill="#C4E0F2"/>
</g>
<g filter="url(#filter7_f_846_1391)">
<circle cx="0.25" cy="0.25" r="0.25" transform="matrix(0.887182 -0.46142 -0.46142 -0.887182 15.4932 62.3233)" fill="#C4E0F2"/>
</g>
<g filter="url(#filter8_f_846_1391)">
<circle cx="0.5" cy="0.5" r="0.5" transform="matrix(0.887182 -0.46142 -0.46142 -0.887182 20.3474 78.0928)" fill="#C4E0F2"/>
</g>
<g filter="url(#filter9_f_846_1391)">
<circle cx="0.5" cy="0.5" r="0.5" transform="matrix(0.887182 -0.46142 -0.46142 -0.887182 27.5874 83.3467)" fill="#C4E0F2"/>
</g>
<g filter="url(#filter10_f_846_1391)">
<circle cx="0.5" cy="0.5" r="0.5" transform="matrix(0.887182 -0.46142 -0.46142 -0.887182 15.7332 69.2217)" fill="#C4E0F2"/>
</g>
<g filter="url(#filter11_f_846_1391)">
<circle cx="0.25" cy="0.25" r="0.25" transform="matrix(0.887182 -0.46142 -0.46142 -0.887182 22.2288 83.878)" fill="#C4E0F2"/>
</g>
<g filter="url(#filter12_f_846_1391)">
<circle cx="0.25" cy="0.25" r="0.25" transform="matrix(0.887182 -0.46142 -0.46142 -0.887182 34.6929 85.3741)" fill="#C4E0F2"/>
</g>
<g filter="url(#filter13_f_846_1391)">
<circle cx="0.25" cy="0.25" r="0.25" transform="matrix(0.887182 -0.46142 -0.46142 -0.887182 14.9172 74.1553)" fill="#C4E0F2"/>
</g>
<g filter="url(#filter14_f_846_1391)">
<circle cx="0.25" cy="0.25" r="0.25" transform="matrix(0.887182 -0.46142 -0.46142 -0.887182 15.4932 62.3233)" fill="#C4E0F2"/>
</g>
<path d="M70.7 54C70.7 66.7 60.3 77 47.5 77C34.7 77 24.3 66.7 24.3 54C24.3 41.3 47.5 18 47.5 18C47.5 18 70.7 41.3 70.7 54Z" fill="url(#paint0_linear_846_1391)" stroke="url(#paint1_linear_846_1391)" stroke-width="7" stroke-miterlimit="10"/>
<path d="M43.4129 45.2832L35.4295 61.1553H41.0018V52.6387H43.7244V61.1553H47.0154V63.9746H43.6277V69.6836H40.9051V63.9746H33.1697C32.9012 63.9746 32.6688 63.9204 32.4725 63.7998C32.2759 63.6788 32.1321 63.5009 32.0233 63.2832C31.8202 62.877 31.6904 62.4147 31.9266 61.9424L40.4432 45.1035L40.4988 44.9932H43.5594L43.4129 45.2832ZM56.1639 45.0078C59.7428 45.1766 62.5895 47.9249 62.5897 51.29L62.5809 51.6143C62.4771 53.5138 61.4644 55.1897 59.9402 56.2783C62.113 57.5635 63.5572 59.8325 63.5574 62.4189L63.5467 62.793C63.3392 66.6278 59.9573 69.6776 55.8152 69.6777L55.4168 69.668C51.3263 69.4735 48.0731 66.3022 48.0731 62.4189C48.0733 59.8329 49.5171 57.5637 51.6893 56.2783C50.0791 55.1283 49.0408 53.3221 49.0408 51.29C49.041 47.8162 52.0742 45.0002 55.8152 45L56.1639 45.0078ZM77.0877 57.5879H72.8348C71.9595 57.5881 71.25 58.2976 71.2498 59.1729V65.5527C71.2499 66.4281 71.9595 67.1375 72.8348 67.1377H77.0877V69.6377H72.8348C70.5788 69.6375 68.7499 67.8088 68.7498 65.5527V59.1729C68.75 56.9169 70.5788 55.0881 72.8348 55.0879H77.0877V57.5879ZM55.8152 57.6611C52.7662 57.6613 50.5734 59.941 50.5731 62.4189C50.5731 64.8972 52.7659 67.1776 55.8152 67.1777C58.8647 67.1776 61.0574 64.8972 61.0574 62.4189C61.0571 59.9409 58.8644 57.6612 55.8152 57.6611ZM55.8152 47.5C53.2773 47.5002 51.541 49.3681 51.5408 51.29C51.5408 53.2121 53.2771 55.0809 55.8152 55.0811C58.3532 55.0807 60.0897 53.212 60.0897 51.29C60.0894 49.3682 58.3531 47.5003 55.8152 47.5ZM68.4998 46.1504C70.5709 46.1504 72.2498 47.8293 72.2498 49.9004C72.2496 51.9713 70.5707 53.6504 68.4998 53.6504C66.4289 53.6504 64.75 51.9713 64.7498 49.9004C64.7498 47.8293 66.4287 46.1504 68.4998 46.1504ZM68.4998 48.6504C67.8095 48.6504 67.2498 49.21 67.2498 49.9004C67.25 50.5906 67.8096 51.1504 68.4998 51.1504C69.19 51.1504 69.7496 50.5906 69.7498 49.9004C69.7498 49.21 69.1902 48.6504 68.4998 48.6504Z" fill="url(#paint2_linear_846_1391)"/>
</g>
<defs>
<filter id="filter0_f_846_1391" x="-29.7483" y="-1.75354" width="123.99" height="124.026" filterUnits="userSpaceOnUse" color-interpolation-filters="sRGB">
<feFlood flood-opacity="0" result="BackgroundImageFix"/>
<feBlend mode="normal" in="SourceGraphic" in2="BackgroundImageFix" result="shape"/>
<feGaussianBlur stdDeviation="15" result="effect1_foregroundBlur_846_1391"/>
</filter>
<filter id="filter1_f_846_1391" x="19.5603" y="76.4185" width="2" height="2.00018" filterUnits="userSpaceOnUse" color-interpolation-filters="sRGB">
<feFlood flood-opacity="0" result="BackgroundImageFix"/>
<feBlend mode="normal" in="SourceGraphic" in2="BackgroundImageFix" result="shape"/>
<feGaussianBlur stdDeviation="0.25" result="effect1_foregroundBlur_846_1391"/>
</filter>
<filter id="filter2_f_846_1391" x="26.5003" y="81.3724" width="2.6" height="2.60018" filterUnits="userSpaceOnUse" color-interpolation-filters="sRGB">
<feFlood flood-opacity="0" result="BackgroundImageFix"/>
<feBlend mode="normal" in="SourceGraphic" in2="BackgroundImageFix" result="shape"/>
<feGaussianBlur stdDeviation="0.4" result="effect1_foregroundBlur_846_1391"/>
</filter>
<filter id="filter3_f_846_1391" x="14.646" y="67.2474" width="2.6" height="2.60018" filterUnits="userSpaceOnUse" color-interpolation-filters="sRGB">
<feFlood flood-opacity="0" result="BackgroundImageFix"/>
<feBlend mode="normal" in="SourceGraphic" in2="BackgroundImageFix" result="shape"/>
<feGaussianBlur stdDeviation="0.4" result="effect1_foregroundBlur_846_1391"/>
</filter>
<filter id="filter4_f_846_1391" x="21.7852" y="82.9908" width="1.1" height="1.10012" filterUnits="userSpaceOnUse" color-interpolation-filters="sRGB">
<feFlood flood-opacity="0" result="BackgroundImageFix"/>
<feBlend mode="normal" in="SourceGraphic" in2="BackgroundImageFix" result="shape"/>
<feGaussianBlur stdDeviation="0.15" result="effect1_foregroundBlur_846_1391"/>
</filter>
<filter id="filter5_f_846_1391" x="34.0493" y="84.2869" width="1.5" height="1.50012" filterUnits="userSpaceOnUse" color-interpolation-filters="sRGB">
<feFlood flood-opacity="0" result="BackgroundImageFix"/>
<feBlend mode="normal" in="SourceGraphic" in2="BackgroundImageFix" result="shape"/>
<feGaussianBlur stdDeviation="0.25" result="effect1_foregroundBlur_846_1391"/>
</filter>
<filter id="filter6_f_846_1391" x="14.2737" y="73.0681" width="1.5" height="1.50012" filterUnits="userSpaceOnUse" color-interpolation-filters="sRGB">
<feFlood flood-opacity="0" result="BackgroundImageFix"/>
<feBlend mode="normal" in="SourceGraphic" in2="BackgroundImageFix" result="shape"/>
<feGaussianBlur stdDeviation="0.25" result="effect1_foregroundBlur_846_1391"/>
</filter>
<filter id="filter7_f_846_1391" x="14.8496" y="61.2361" width="1.5" height="1.50012" filterUnits="userSpaceOnUse" color-interpolation-filters="sRGB">
<feFlood flood-opacity="0" result="BackgroundImageFix"/>
<feBlend mode="normal" in="SourceGraphic" in2="BackgroundImageFix" result="shape"/>
<feGaussianBlur stdDeviation="0.25" result="effect1_foregroundBlur_846_1391"/>
</filter>
<filter id="filter8_f_846_1391" x="19.5603" y="76.4185" width="2" height="2.00018" filterUnits="userSpaceOnUse" color-interpolation-filters="sRGB">
<feFlood flood-opacity="0" result="BackgroundImageFix"/>
<feBlend mode="normal" in="SourceGraphic" in2="BackgroundImageFix" result="shape"/>
<feGaussianBlur stdDeviation="0.25" result="effect1_foregroundBlur_846_1391"/>
</filter>
<filter id="filter9_f_846_1391" x="26.5003" y="81.3724" width="2.6" height="2.60018" filterUnits="userSpaceOnUse" color-interpolation-filters="sRGB">
<feFlood flood-opacity="0" result="BackgroundImageFix"/>
<feBlend mode="normal" in="SourceGraphic" in2="BackgroundImageFix" result="shape"/>
<feGaussianBlur stdDeviation="0.4" result="effect1_foregroundBlur_846_1391"/>
</filter>
<filter id="filter10_f_846_1391" x="14.646" y="67.2474" width="2.6" height="2.60018" filterUnits="userSpaceOnUse" color-interpolation-filters="sRGB">
<feFlood flood-opacity="0" result="BackgroundImageFix"/>
<feBlend mode="normal" in="SourceGraphic" in2="BackgroundImageFix" result="shape"/>
<feGaussianBlur stdDeviation="0.4" result="effect1_foregroundBlur_846_1391"/>
</filter>
<filter id="filter11_f_846_1391" x="21.7852" y="82.9908" width="1.1" height="1.10012" filterUnits="userSpaceOnUse" color-interpolation-filters="sRGB">
<feFlood flood-opacity="0" result="BackgroundImageFix"/>
<feBlend mode="normal" in="SourceGraphic" in2="BackgroundImageFix" result="shape"/>
<feGaussianBlur stdDeviation="0.15" result="effect1_foregroundBlur_846_1391"/>
</filter>
<filter id="filter12_f_846_1391" x="34.0493" y="84.2869" width="1.5" height="1.50012" filterUnits="userSpaceOnUse" color-interpolation-filters="sRGB">
<feFlood flood-opacity="0" result="BackgroundImageFix"/>
<feBlend mode="normal" in="SourceGraphic" in2="BackgroundImageFix" result="shape"/>
<feGaussianBlur stdDeviation="0.25" result="effect1_foregroundBlur_846_1391"/>
</filter>
<filter id="filter13_f_846_1391" x="14.2737" y="73.0681" width="1.5" height="1.50012" filterUnits="userSpaceOnUse" color-interpolation-filters="sRGB">
<feFlood flood-opacity="0" result="BackgroundImageFix"/>
<feBlend mode="normal" in="SourceGraphic" in2="BackgroundImageFix" result="shape"/>
<feGaussianBlur stdDeviation="0.25" result="effect1_foregroundBlur_846_1391"/>
</filter>
<filter id="filter14_f_846_1391" x="14.8496" y="61.2361" width="1.5" height="1.50012" filterUnits="userSpaceOnUse" color-interpolation-filters="sRGB">
<feFlood flood-opacity="0" result="BackgroundImageFix"/>
<feBlend mode="normal" in="SourceGraphic" in2="BackgroundImageFix" result="shape"/>
<feGaussianBlur stdDeviation="0.25" result="effect1_foregroundBlur_846_1391"/>
</filter>
<linearGradient id="paint0_linear_846_1391" x1="47.5" y1="18" x2="47.5" y2="69" gradientUnits="userSpaceOnUse">
<stop stop-color="#0A0A0A" stop-opacity="0"/>
<stop offset="0.4" stop-color="#237595" stop-opacity="0.4"/>
<stop offset="1" stop-color="#3896BA"/>
</linearGradient>
<linearGradient id="paint1_linear_846_1391" x1="47.5" y1="18" x2="47.5" y2="77" gradientUnits="userSpaceOnUse">
<stop stop-color="#144358"/>
<stop offset="0.5" stop-color="#296B88"/>
<stop offset="1" stop-color="#B1C9EC"/>
</linearGradient>
<linearGradient id="paint2_linear_846_1391" x1="54.4438" y1="44.9932" x2="54.4438" y2="69.6836" gradientUnits="userSpaceOnUse">
<stop stop-color="#EBF8FF"/>
<stop offset="1" stop-color="#C4E0F2"/>
</linearGradient>
<clipPath id="clip0_846_1391">
<rect width="95" height="95" fill="white"/>
</clipPath>
</defs>
</svg>
