<svg width="95" height="95" viewBox="0 0 95 95" fill="none" xmlns="http://www.w3.org/2000/svg">
<g clip-path="url(#clip0_628_615)">
<path d="M95 31.7H0" stroke="white" stroke-width="0.0395833" stroke-miterlimit="10"/>
<path d="M95 47.5H0" stroke="white" stroke-width="0.0395833" stroke-miterlimit="10"/>
<path d="M95 63.3H0" stroke="white" stroke-width="0.0395833" stroke-miterlimit="10"/>
<path d="M63.3 95V0" stroke="white" stroke-width="0.0395833" stroke-miterlimit="10"/>
<path d="M47.5 95V0" stroke="white" stroke-width="0.0395833" stroke-miterlimit="10"/>
<path d="M31.7 95V0" stroke="white" stroke-width="0.0395833" stroke-miterlimit="10"/>
<path d="M95 95V0H0V95H95Z" stroke="white" stroke-width="0.0197917" stroke-miterlimit="10"/>
<path d="M95 4H0" stroke="white" stroke-width="0.0197917" stroke-miterlimit="10"/>
<path d="M95 7.90002H0" stroke="white" stroke-width="0.0197917" stroke-miterlimit="10"/>
<path d="M95 11.9H0" stroke="white" stroke-width="0.0197917" stroke-miterlimit="10"/>
<path d="M95 15.8H0" stroke="white" stroke-width="0.0197917" stroke-miterlimit="10"/>
<path d="M95 19.8H0" stroke="white" stroke-width="0.0197917" stroke-miterlimit="10"/>
<path d="M95 23.8H0" stroke="white" stroke-width="0.0197917" stroke-miterlimit="10"/>
<path d="M95 27.7H0" stroke="white" stroke-width="0.0197917" stroke-miterlimit="10"/>
<path d="M95 35.6H0" stroke="white" stroke-width="0.0197917" stroke-miterlimit="10"/>
<path d="M95 39.6H0" stroke="white" stroke-width="0.0197917" stroke-miterlimit="10"/>
<path d="M95 43.6H0" stroke="white" stroke-width="0.0197917" stroke-miterlimit="10"/>
<path d="M95 51.5H0" stroke="white" stroke-width="0.0197917" stroke-miterlimit="10"/>
<path d="M95 55.4H0" stroke="white" stroke-width="0.0197917" stroke-miterlimit="10"/>
<path d="M95 59.4H0" stroke="white" stroke-width="0.0197917" stroke-miterlimit="10"/>
<path d="M95 67.3H0" stroke="white" stroke-width="0.0197917" stroke-miterlimit="10"/>
<path d="M95 71.3H0" stroke="white" stroke-width="0.0197917" stroke-miterlimit="10"/>
<path d="M95 75.2H0" stroke="white" stroke-width="0.0197917" stroke-miterlimit="10"/>
<path d="M95 79.2H0" stroke="white" stroke-width="0.0197917" stroke-miterlimit="10"/>
<path d="M95 83.1H0" stroke="white" stroke-width="0.0197917" stroke-miterlimit="10"/>
<path d="M95 87.1H0" stroke="white" stroke-width="0.0197917" stroke-miterlimit="10"/>
<path d="M95 91.1H0" stroke="white" stroke-width="0.0197917" stroke-miterlimit="10"/>
<path d="M91.1001 95V0" stroke="white" stroke-width="0.0197917" stroke-miterlimit="10"/>
<path d="M87.1001 95V0" stroke="white" stroke-width="0.0197917" stroke-miterlimit="10"/>
<path d="M83.1001 95V0" stroke="white" stroke-width="0.0197917" stroke-miterlimit="10"/>
<path d="M79.2 95V0" stroke="white" stroke-width="0.0197917" stroke-miterlimit="10"/>
<path d="M75.2 95V0" stroke="white" stroke-width="0.0197917" stroke-miterlimit="10"/>
<path d="M71.3 95V0" stroke="white" stroke-width="0.0197917" stroke-miterlimit="10"/>
<path d="M67.3 95V0" stroke="white" stroke-width="0.0197917" stroke-miterlimit="10"/>
<path d="M59.3999 95V0" stroke="white" stroke-width="0.0197917" stroke-miterlimit="10"/>
<path d="M55.3999 95V0" stroke="white" stroke-width="0.0197917" stroke-miterlimit="10"/>
<path d="M51.5 95V0" stroke="white" stroke-width="0.0197917" stroke-miterlimit="10"/>
<path d="M43.6001 95V0" stroke="white" stroke-width="0.0197917" stroke-miterlimit="10"/>
<path d="M39.6001 95V0" stroke="white" stroke-width="0.0197917" stroke-miterlimit="10"/>
<path d="M35.6001 95V0" stroke="white" stroke-width="0.0197917" stroke-miterlimit="10"/>
<path d="M27.7 95V0" stroke="white" stroke-width="0.0197917" stroke-miterlimit="10"/>
<path d="M23.8 95V0" stroke="white" stroke-width="0.0197917" stroke-miterlimit="10"/>
<path d="M19.8 95V0" stroke="white" stroke-width="0.0197917" stroke-miterlimit="10"/>
<path d="M15.8 95V0" stroke="white" stroke-width="0.0197917" stroke-miterlimit="10"/>
<path d="M11.8999 95V0" stroke="white" stroke-width="0.0197917" stroke-miterlimit="10"/>
<path d="M7.8999 95V0" stroke="white" stroke-width="0.0197917" stroke-miterlimit="10"/>
<path d="M4 95V0" stroke="white" stroke-width="0.0197917" stroke-miterlimit="10"/>
<path d="M95 0L0 95" stroke="white" stroke-width="0.0197917" stroke-miterlimit="10"/>
<path d="M95 95L0 0" stroke="white" stroke-width="0.0197917" stroke-miterlimit="10"/>
<path d="M47.5 67.3C58.4 67.3 67.3 58.4 67.3 47.5C67.3 36.6 58.4 27.7 47.5 27.7C36.6 27.7 27.7 36.6 27.7 47.5C27.7 58.4 36.6 67.3 47.5 67.3Z" stroke="white" stroke-width="0.0197917" stroke-miterlimit="10"/>
<path d="M47.5 79C64.9 79 79 64.9 79 47.5C79 30.1 64.9 16 47.5 16C30.1 16 16 30.1 16 47.5C16 64.9 30.1 79 47.5 79Z" stroke="white" stroke-width="0.0315" stroke-miterlimit="10"/>
<path d="M83.0999 15.8H11.8999V78.8H83.0999V15.8Z" stroke="white" stroke-width="0.0395833" stroke-miterlimit="10"/>
<g filter="url(#filter0_f_628_615)">
<ellipse cx="26.2001" cy="29.1051" rx="32.5" ry="31.5" transform="rotate(41.1474 26.2001 29.1051)" fill="#B7E2C5" fill-opacity="0.27"/>
</g>
<g filter="url(#filter1_f_628_615)">
<circle cx="12.3093" cy="15.238" r="0.55" transform="rotate(28.8363 12.3093 15.238)" fill="#C1FBED"/>
</g>
<g filter="url(#filter2_f_628_615)">
<circle cx="20.4099" cy="9.65088" r="0.55" transform="rotate(28.8363 20.4099 9.65088)" fill="#C1FBED"/>
</g>
<g filter="url(#filter3_f_628_615)">
<circle cx="7.00437" cy="24.874" r="0.55" transform="rotate(28.8363 7.00437 24.874)" fill="#C1FBED" fill-opacity="0.8"/>
</g>
<g filter="url(#filter4_f_628_615)">
<circle cx="14.4237" cy="8.55164" r="0.275" transform="rotate(28.8363 14.4237 8.55164)" fill="#C1FBED"/>
</g>
<g filter="url(#filter5_f_628_615)">
<circle cx="28.1671" cy="7.23187" r="0.275" transform="rotate(28.8363 28.1671 7.23187)" fill="#C1FBED"/>
</g>
<g filter="url(#filter6_f_628_615)">
<circle cx="6.12951" cy="19.0538" r="0.275" transform="rotate(28.8363 6.12951 19.0538)" fill="#C1FBED"/>
</g>
<g filter="url(#filter7_f_628_615)">
<circle cx="6.45495" cy="32.0806" r="0.275" transform="rotate(28.8363 6.45495 32.0806)" fill="#C1FBED"/>
</g>
<g filter="url(#filter8_f_628_615)">
<circle cx="12.3093" cy="15.2381" r="0.55" transform="rotate(28.8363 12.3093 15.2381)" fill="#C1FBED"/>
</g>
<g filter="url(#filter9_f_628_615)">
<circle cx="20.4099" cy="9.651" r="0.55" transform="rotate(28.8363 20.4099 9.651)" fill="#C1FBED"/>
</g>
<g filter="url(#filter10_f_628_615)">
<circle cx="7.00437" cy="24.8741" r="0.55" transform="rotate(28.8363 7.00437 24.8741)" fill="#C1FBED" fill-opacity="0.8"/>
</g>
<g filter="url(#filter11_f_628_615)">
<circle cx="14.4237" cy="8.55176" r="0.275" transform="rotate(28.8363 14.4237 8.55176)" fill="#C1FBED"/>
</g>
<g filter="url(#filter12_f_628_615)">
<circle cx="28.1671" cy="7.23199" r="0.275" transform="rotate(28.8363 28.1671 7.23199)" fill="#C1FBED"/>
</g>
<g filter="url(#filter13_f_628_615)">
<circle cx="6.12951" cy="19.0539" r="0.275" transform="rotate(28.8363 6.12951 19.0539)" fill="#C1FBED"/>
</g>
<g filter="url(#filter14_f_628_615)">
<circle cx="6.45495" cy="32.0807" r="0.275" transform="rotate(28.8363 6.45495 32.0807)" fill="#C1FBED"/>
</g>
<path d="M77.5 17.5H17.5V77.5H77.5V17.5Z" fill="url(#paint0_linear_628_615)" stroke="url(#paint1_linear_628_615)" stroke-width="6" stroke-miterlimit="10"/>
<path d="M33 26.5H62" stroke="#C3FDEF" stroke-width="3.5" stroke-miterlimit="10"/>
<path d="M33.2 68.4999H62.2" stroke="#C3FDEF" stroke-width="3.5" stroke-miterlimit="10"/>
<path d="M44.1001 52.2C44.1001 52.5 44.1001 52.8 44.1001 53C44.1001 53.3 44.1001 53.6 44.1001 53.9C44.1001 54.1 44.1001 54.3 44.2001 54.6C44.2001 54.8 44.3001 55.1 44.3001 55.3C44.3001 55.5 44.4001 55.7 44.5001 55.9C44.5001 56 44.6001 56.2 44.6001 56.3C44.7001 56.5 44.7001 56.7 44.8001 56.8C44.9001 56.9 45.0001 57.1 45.0001 57.3C43.9001 58.3 42.5001 58.9 41.0001 58.9C37.8001 58.9 35.1001 56.3 35.1001 53C35.1001 51.4 35.7001 49.9 36.8001 48.8C37.9001 47.7 39.4001 47.1 41.0001 47.1C41.9001 47.1 42.8001 47.3 43.6001 47.7C43.7001 47.8 43.8001 47.8 43.9001 47.9C44.0001 48 44.2001 48.1 44.3001 48.2C44.4001 48.3 44.5001 48.3 44.6001 48.4C44.7001 48.5 44.8001 48.6 44.9001 48.7C44.7001 49.1 44.6001 49.4 44.4001 49.8C44.4001 49.9 44.3001 50 44.3001 50.1C44.2001 50.3 44.2001 50.5 44.1001 50.7V50.8C44.1001 51 44.0001 51.3 44.0001 51.5C44.1001 51.8 44.1001 52 44.1001 52.2Z" fill="#C3FDEF"/>
<path d="M59.8 53.1C59.8 56.4 57.2 59 53.9 59C52 59 50.2 58.1 49.1 56.5C48.4 55.5 48 54.3 48 53.1C48 53 48 52.8 48 52.6C48 52.5 48 52.3 48.1 52.2C48.1 52.1 48.1 52.1 48.1 52C48.1 51.9 48.1 51.8 48.2 51.7C48.3 51.5 48.3 51.2 48.4 51C48.4 50.9 48.5 50.8 48.5 50.7C48.6 50.6 48.6 50.5 48.7 50.4L48.8 50.5C50 51.2 51.4 51.7 52.9 51.8C53 51.8 53.2 51.8 53.3 51.8C53.5 51.8 53.7 51.8 53.9 51.8C54.1 51.8 54.3 51.8 54.5 51.8C54.6 51.8 54.8 51.8 54.9 51.8C55.4 51.7 55.9 51.7 56.4 51.5C56.5 51.5 56.7 51.4 56.8 51.4C57.1 51.3 57.4 51.2 57.7 51.1C57.8 51 58 51 58.1 50.9C58.4 50.8 58.7 50.6 58.9 50.4C59 50.4 59 50.4 59 50.3C59.6 51.1 59.8 52.1 59.8 53.1Z" fill="#C3FDEF"/>
<path d="M48.8 50.3L48.9001 50.4C48.8001 50.3 48.8 50.3 48.8 50.3Z" fill="black"/>
<path d="M59.8 41.8C59.8 43.4 59.2 44.9 58.1 46C57 47.1 55.5 47.7 54 47.7C52.7 47.7 51.4 47.3 50.4 46.5C50.3 46.4 50.2 46.3 50.1 46.2L50 46.1C50.1 45.9 50.2 45.6 50.3 45.4C50.4 45.2 50.4 45.1 50.5 44.9C50.6 44.8 50.6 44.6 50.6 44.5C50.7 44.2 50.8 43.9 50.8 43.5C50.8 43.4 50.8 43.3 50.8 43.3C50.8 43.1 50.9 42.9 50.9 42.7C50.9 42.4 50.9 42.1 50.9 41.9C50.9 41.6 50.9 41.3 50.9 41C50.9 40.8 50.9 40.6 50.8 40.4C50.8 40.1 50.7 39.8 50.7 39.6C50.7 39.5 50.6 39.4 50.6 39.3C50.5 39 50.4 38.7 50.3 38.4C50.3 38.3 50.2 38.2 50.2 38.1C50.1 37.9 50.1 37.8 50 37.6C51.1 36.6 52.5 36 54 36C57.2 36 59.8 38.6 59.8 41.8Z" fill="#C3FDEF"/>
<path d="M46.3 44.6C46.3 44.5 46.4001 44.5 46.4001 44.4C46.3001 44.5 46.3 44.6 46.3 44.6Z" fill="black"/>
<path d="M47 41.8C47 41.9 47 42.1 47 42.3C47 42.4 47.0001 42.6 46.9001 42.7C46.8001 43.3 46.6 43.9 46.3 44.4C46.3 44.5 46.3001 44.5 46.2001 44.6L46.1 44.5C45.8 44.3 45.6 44.2 45.3 44C45.1 44 45 44 44.8 43.9C44.7 43.8 44.5001 43.8 44.4001 43.7C44.3001 43.6 44.1 43.6 44 43.6C43.9 43.6 43.7 43.5 43.6 43.5C43.6 43.5 43.5001 43.5 43.4001 43.5C43.3001 43.5 43.1 43.4 43 43.4C42.7 43.3 42.4 43.3 42 43.3C41.9 43.3 41.7 43.3 41.6 43.3C41.4 43.3 41.2 43.3 41 43.3C40.8 43.3 40.6001 43.3 40.4001 43.3C40.3001 43.3 40.1 43.3 40 43.3C39.5 43.4 39 43.4 38.5 43.6C38.4 43.6 38.3001 43.7 38.2001 43.7C38.0001 43.7 37.9 43.8 37.8 43.8C37.6 43.8 37.5 43.9 37.3 44C37.1 44.1 37.0001 44 36.9001 44.1C36.6001 44.2 36.3 44.4 36.1 44.6C36 44.6 36 44.6 36 44.7C35.5 43.9 35.3 42.9 35.3 41.9C35.3 38.6 38.0001 36 41.2001 36C43.1001 36 44.9 36.9 46 38.5C46.6 39.4 47 40.6 47 41.8Z" fill="#C3FDEF"/>
<path d="M46.1001 44.6C46.2001 44.6 46.2001 44.7 46.2001 44.7C46.2001 44.6 46.2001 44.6 46.1001 44.6Z" fill="black"/>
</g>
<defs>
<filter id="filter0_f_628_615" x="-35.8716" y="-32.832" width="124.143" height="123.874" filterUnits="userSpaceOnUse" color-interpolation-filters="sRGB">
<feFlood flood-opacity="0" result="BackgroundImageFix"/>
<feBlend mode="normal" in="SourceGraphic" in2="BackgroundImageFix" result="shape"/>
<feGaussianBlur stdDeviation="15" result="effect1_foregroundBlur_628_615"/>
</filter>
<filter id="filter1_f_628_615" x="11.2093" y="14.1379" width="2.2001" height="2.20022" filterUnits="userSpaceOnUse" color-interpolation-filters="sRGB">
<feFlood flood-opacity="0" result="BackgroundImageFix"/>
<feBlend mode="normal" in="SourceGraphic" in2="BackgroundImageFix" result="shape"/>
<feGaussianBlur stdDeviation="0.275" result="effect1_foregroundBlur_628_615"/>
</filter>
<filter id="filter2_f_628_615" x="18.9799" y="8.22077" width="2.8601" height="2.86022" filterUnits="userSpaceOnUse" color-interpolation-filters="sRGB">
<feFlood flood-opacity="0" result="BackgroundImageFix"/>
<feBlend mode="normal" in="SourceGraphic" in2="BackgroundImageFix" result="shape"/>
<feGaussianBlur stdDeviation="0.44" result="effect1_foregroundBlur_628_615"/>
</filter>
<filter id="filter3_f_628_615" x="5.57435" y="23.4439" width="2.8601" height="2.86022" filterUnits="userSpaceOnUse" color-interpolation-filters="sRGB">
<feFlood flood-opacity="0" result="BackgroundImageFix"/>
<feBlend mode="normal" in="SourceGraphic" in2="BackgroundImageFix" result="shape"/>
<feGaussianBlur stdDeviation="0.44" result="effect1_foregroundBlur_628_615"/>
</filter>
<filter id="filter4_f_628_615" x="13.8187" y="7.94661" width="1.21005" height="1.21005" filterUnits="userSpaceOnUse" color-interpolation-filters="sRGB">
<feFlood flood-opacity="0" result="BackgroundImageFix"/>
<feBlend mode="normal" in="SourceGraphic" in2="BackgroundImageFix" result="shape"/>
<feGaussianBlur stdDeviation="0.165" result="effect1_foregroundBlur_628_615"/>
</filter>
<filter id="filter5_f_628_615" x="27.3421" y="6.40685" width="1.65005" height="1.65005" filterUnits="userSpaceOnUse" color-interpolation-filters="sRGB">
<feFlood flood-opacity="0" result="BackgroundImageFix"/>
<feBlend mode="normal" in="SourceGraphic" in2="BackgroundImageFix" result="shape"/>
<feGaussianBlur stdDeviation="0.275" result="effect1_foregroundBlur_628_615"/>
</filter>
<filter id="filter6_f_628_615" x="5.30449" y="18.2287" width="1.65005" height="1.65005" filterUnits="userSpaceOnUse" color-interpolation-filters="sRGB">
<feFlood flood-opacity="0" result="BackgroundImageFix"/>
<feBlend mode="normal" in="SourceGraphic" in2="BackgroundImageFix" result="shape"/>
<feGaussianBlur stdDeviation="0.275" result="effect1_foregroundBlur_628_615"/>
</filter>
<filter id="filter7_f_628_615" x="5.62993" y="31.2556" width="1.65005" height="1.65005" filterUnits="userSpaceOnUse" color-interpolation-filters="sRGB">
<feFlood flood-opacity="0" result="BackgroundImageFix"/>
<feBlend mode="normal" in="SourceGraphic" in2="BackgroundImageFix" result="shape"/>
<feGaussianBlur stdDeviation="0.275" result="effect1_foregroundBlur_628_615"/>
</filter>
<filter id="filter8_f_628_615" x="11.2093" y="14.138" width="2.2001" height="2.20022" filterUnits="userSpaceOnUse" color-interpolation-filters="sRGB">
<feFlood flood-opacity="0" result="BackgroundImageFix"/>
<feBlend mode="normal" in="SourceGraphic" in2="BackgroundImageFix" result="shape"/>
<feGaussianBlur stdDeviation="0.275" result="effect1_foregroundBlur_628_615"/>
</filter>
<filter id="filter9_f_628_615" x="18.9799" y="8.22089" width="2.8601" height="2.86022" filterUnits="userSpaceOnUse" color-interpolation-filters="sRGB">
<feFlood flood-opacity="0" result="BackgroundImageFix"/>
<feBlend mode="normal" in="SourceGraphic" in2="BackgroundImageFix" result="shape"/>
<feGaussianBlur stdDeviation="0.44" result="effect1_foregroundBlur_628_615"/>
</filter>
<filter id="filter10_f_628_615" x="5.57435" y="23.444" width="2.8601" height="2.86022" filterUnits="userSpaceOnUse" color-interpolation-filters="sRGB">
<feFlood flood-opacity="0" result="BackgroundImageFix"/>
<feBlend mode="normal" in="SourceGraphic" in2="BackgroundImageFix" result="shape"/>
<feGaussianBlur stdDeviation="0.44" result="effect1_foregroundBlur_628_615"/>
</filter>
<filter id="filter11_f_628_615" x="13.8187" y="7.94673" width="1.21005" height="1.21005" filterUnits="userSpaceOnUse" color-interpolation-filters="sRGB">
<feFlood flood-opacity="0" result="BackgroundImageFix"/>
<feBlend mode="normal" in="SourceGraphic" in2="BackgroundImageFix" result="shape"/>
<feGaussianBlur stdDeviation="0.165" result="effect1_foregroundBlur_628_615"/>
</filter>
<filter id="filter12_f_628_615" x="27.3421" y="6.40697" width="1.65005" height="1.65005" filterUnits="userSpaceOnUse" color-interpolation-filters="sRGB">
<feFlood flood-opacity="0" result="BackgroundImageFix"/>
<feBlend mode="normal" in="SourceGraphic" in2="BackgroundImageFix" result="shape"/>
<feGaussianBlur stdDeviation="0.275" result="effect1_foregroundBlur_628_615"/>
</filter>
<filter id="filter13_f_628_615" x="5.30449" y="18.2289" width="1.65005" height="1.65005" filterUnits="userSpaceOnUse" color-interpolation-filters="sRGB">
<feFlood flood-opacity="0" result="BackgroundImageFix"/>
<feBlend mode="normal" in="SourceGraphic" in2="BackgroundImageFix" result="shape"/>
<feGaussianBlur stdDeviation="0.275" result="effect1_foregroundBlur_628_615"/>
</filter>
<filter id="filter14_f_628_615" x="5.62993" y="31.2557" width="1.65005" height="1.65005" filterUnits="userSpaceOnUse" color-interpolation-filters="sRGB">
<feFlood flood-opacity="0" result="BackgroundImageFix"/>
<feBlend mode="normal" in="SourceGraphic" in2="BackgroundImageFix" result="shape"/>
<feGaussianBlur stdDeviation="0.275" result="effect1_foregroundBlur_628_615"/>
</filter>
<linearGradient id="paint0_linear_628_615" x1="47.5" y1="15" x2="47.5" y2="78" gradientUnits="userSpaceOnUse">
<stop stop-color="#0D1B12"/>
<stop offset="1" stop-color="#4A7358"/>
</linearGradient>
<linearGradient id="paint1_linear_628_615" x1="47.5" y1="-6.5" x2="47.5" y2="100.5" gradientUnits="userSpaceOnUse">
<stop stop-color="#24342C"/>
<stop offset="0.37" stop-color="#608D71"/>
<stop offset="0.63" stop-color="#A0D3C4"/>
<stop offset="1" stop-color="#C3FDEF"/>
</linearGradient>
<clipPath id="clip0_628_615">
<rect width="95" height="95" fill="white"/>
</clipPath>
</defs>
</svg>
