<svg width="95" height="95" viewBox="0 0 95 95" fill="none" xmlns="http://www.w3.org/2000/svg">
<g clip-path="url(#clip0_547_2208)">
<path d="M95 31.7H0" stroke="white" stroke-width="0.0395833" stroke-miterlimit="10"/>
<path d="M95 47.5H0" stroke="white" stroke-width="0.0395833" stroke-miterlimit="10"/>
<path d="M95 63.3H0" stroke="white" stroke-width="0.0395833" stroke-miterlimit="10"/>
<path d="M63.3 95V0" stroke="white" stroke-width="0.0395833" stroke-miterlimit="10"/>
<path d="M47.5 95V0" stroke="white" stroke-width="0.0395833" stroke-miterlimit="10"/>
<path d="M31.7 95V0" stroke="white" stroke-width="0.0395833" stroke-miterlimit="10"/>
<path d="M95 95V0H0V95H95Z" stroke="white" stroke-width="0.0197917" stroke-miterlimit="10"/>
<path d="M95 4H0" stroke="white" stroke-width="0.0197917" stroke-miterlimit="10"/>
<path d="M95 7.90002H0" stroke="white" stroke-width="0.0197917" stroke-miterlimit="10"/>
<path d="M95 11.9H0" stroke="white" stroke-width="0.0197917" stroke-miterlimit="10"/>
<path d="M95 15.8H0" stroke="white" stroke-width="0.0197917" stroke-miterlimit="10"/>
<path d="M95 19.8H0" stroke="white" stroke-width="0.0197917" stroke-miterlimit="10"/>
<path d="M95 23.8H0" stroke="white" stroke-width="0.0197917" stroke-miterlimit="10"/>
<path d="M95 27.7H0" stroke="white" stroke-width="0.0197917" stroke-miterlimit="10"/>
<path d="M95 35.6H0" stroke="white" stroke-width="0.0197917" stroke-miterlimit="10"/>
<path d="M95 39.6H0" stroke="white" stroke-width="0.0197917" stroke-miterlimit="10"/>
<path d="M95 43.6H0" stroke="white" stroke-width="0.0197917" stroke-miterlimit="10"/>
<path d="M95 51.5H0" stroke="white" stroke-width="0.0197917" stroke-miterlimit="10"/>
<path d="M95 55.4H0" stroke="white" stroke-width="0.0197917" stroke-miterlimit="10"/>
<path d="M95 59.4H0" stroke="white" stroke-width="0.0197917" stroke-miterlimit="10"/>
<path d="M95 67.3H0" stroke="white" stroke-width="0.0197917" stroke-miterlimit="10"/>
<path d="M95 71.3H0" stroke="white" stroke-width="0.0197917" stroke-miterlimit="10"/>
<path d="M95 75.2H0" stroke="white" stroke-width="0.0197917" stroke-miterlimit="10"/>
<path d="M95 79.2H0" stroke="white" stroke-width="0.0197917" stroke-miterlimit="10"/>
<path d="M95 83.1H0" stroke="white" stroke-width="0.0197917" stroke-miterlimit="10"/>
<path d="M95 87.1H0" stroke="white" stroke-width="0.0197917" stroke-miterlimit="10"/>
<path d="M95 91.1H0" stroke="white" stroke-width="0.0197917" stroke-miterlimit="10"/>
<path d="M91.1001 95V0" stroke="white" stroke-width="0.0197917" stroke-miterlimit="10"/>
<path d="M87.1001 95V0" stroke="white" stroke-width="0.0197917" stroke-miterlimit="10"/>
<path d="M83.1001 95V0" stroke="white" stroke-width="0.0197917" stroke-miterlimit="10"/>
<path d="M79.2 95V0" stroke="white" stroke-width="0.0197917" stroke-miterlimit="10"/>
<path d="M75.2 95V0" stroke="white" stroke-width="0.0197917" stroke-miterlimit="10"/>
<path d="M71.3 95V0" stroke="white" stroke-width="0.0197917" stroke-miterlimit="10"/>
<path d="M67.3 95V0" stroke="white" stroke-width="0.0197917" stroke-miterlimit="10"/>
<path d="M59.3999 95V0" stroke="white" stroke-width="0.0197917" stroke-miterlimit="10"/>
<path d="M55.3999 95V0" stroke="white" stroke-width="0.0197917" stroke-miterlimit="10"/>
<path d="M51.5 95V0" stroke="white" stroke-width="0.0197917" stroke-miterlimit="10"/>
<path d="M43.6001 95V0" stroke="white" stroke-width="0.0197917" stroke-miterlimit="10"/>
<path d="M39.6001 95V0" stroke="white" stroke-width="0.0197917" stroke-miterlimit="10"/>
<path d="M35.6001 95V0" stroke="white" stroke-width="0.0197917" stroke-miterlimit="10"/>
<path d="M27.7 95V0" stroke="white" stroke-width="0.0197917" stroke-miterlimit="10"/>
<path d="M23.8 95V0" stroke="white" stroke-width="0.0197917" stroke-miterlimit="10"/>
<path d="M19.8 95V0" stroke="white" stroke-width="0.0197917" stroke-miterlimit="10"/>
<path d="M15.8 95V0" stroke="white" stroke-width="0.0197917" stroke-miterlimit="10"/>
<path d="M11.8999 95V0" stroke="white" stroke-width="0.0197917" stroke-miterlimit="10"/>
<path d="M7.8999 95V0" stroke="white" stroke-width="0.0197917" stroke-miterlimit="10"/>
<path d="M4 95V0" stroke="white" stroke-width="0.0197917" stroke-miterlimit="10"/>
<path d="M95 0L0 95" stroke="white" stroke-width="0.0197917" stroke-miterlimit="10"/>
<path d="M95 95L0 0" stroke="white" stroke-width="0.0197917" stroke-miterlimit="10"/>
<path d="M47.5 67.3C58.4 67.3 67.3 58.4 67.3 47.5C67.3 36.6 58.4 27.7 47.5 27.7C36.6 27.7 27.7 36.6 27.7 47.5C27.7 58.4 36.6 67.3 47.5 67.3Z" stroke="white" stroke-width="0.0197917" stroke-miterlimit="10"/>
<path d="M47.5 79C64.9 79 79 64.9 79 47.5C79 30.1 64.9 16 47.5 16C30.1 16 16 30.1 16 47.5C16 64.9 30.1 79 47.5 79Z" stroke="white" stroke-width="0.0315" stroke-miterlimit="10"/>
<path d="M83.0999 15.8H11.8999V78.8H83.0999V15.8Z" stroke="white" stroke-width="0.0395833" stroke-miterlimit="10"/>
<rect x="89" y="55.7393" width="51.7391" height="51.7391" transform="rotate(180 89 55.7393)" fill="url(#paint0_linear_547_2208)"/>
<path d="M79.2999 49.5996C79.4999 53.6996 77.5999 57.2996 76.9999 58.3996C67.0999 77.0996 23.5999 79.1996 16.6999 66.3996C15.7999 64.6996 15.4999 62.8996 15.5999 60.8996" stroke="url(#paint1_linear_547_2208)" stroke-width="7" stroke-miterlimit="10"/>
<path d="M15.6999 52.6998C15.1999 46.2998 19.9999 38.4998 21.7999 35.4998C23.9999 31.9998 28.5999 24.2998 37.7999 21.4998C44.5999 19.3998 50.2999 21.1998 57.8999 23.4998C65.9999 25.9998 76.7999 29.2998 78.9999 37.4998C79.2999 38.5998 79.3999 39.6998 79.3999 40.7998" stroke="url(#paint2_linear_547_2208)" stroke-width="7" stroke-miterlimit="10"/>
<path d="M79.3001 40.6997C79.2001 44.2997 77.6001 47.3997 77.0001 48.3997C67.1001 67.0997 23.6001 69.1997 16.7001 56.3997C16.1001 55.1997 15.7001 53.9997 15.6001 52.5997" stroke="url(#paint3_linear_547_2208)" stroke-width="4" stroke-miterlimit="10"/>
<path d="M79.2998 39.5V51.2" stroke="url(#paint4_linear_547_2208)" stroke-width="7" stroke-miterlimit="10"/>
<path d="M15.6997 51.5V63.2" stroke="url(#paint5_linear_547_2208)" stroke-width="7" stroke-miterlimit="10"/>
<path d="M37.3999 33.5998L60.9999 39.7998" stroke="#FFD7A4" stroke-width="4" stroke-miterlimit="10"/>
<path d="M29.3999 43.5998L52.9999 49.7998" stroke="#FFD7A4" stroke-width="4" stroke-miterlimit="10"/>
<path d="M45.3999 29.5998L29.3999 52.5998" stroke="#FFD7A4" stroke-width="4" stroke-miterlimit="10"/>
<path d="M58.3999 32.5998L42.3999 55.5998" stroke="#FFD7A4" stroke-width="4" stroke-miterlimit="10"/>
</g>
<defs>
<linearGradient id="paint0_linear_547_2208" x1="137.635" y1="61.4306" x2="94.1739" y2="107.478" gradientUnits="userSpaceOnUse">
<stop stop-color="#5D4D38" stop-opacity="0"/>
<stop offset="1" stop-color="#3F327F"/>
</linearGradient>
<linearGradient id="paint1_linear_547_2208" x1="36" y1="16" x2="47.5" y2="79" gradientUnits="userSpaceOnUse">
<stop offset="0.192641" stop-color="#FFD7A4"/>
<stop offset="1" stop-color="#8173C4"/>
</linearGradient>
<linearGradient id="paint2_linear_547_2208" x1="35.5" y1="15.5" x2="48" y2="78.5" gradientUnits="userSpaceOnUse">
<stop offset="0.190132" stop-color="#FFD7A4"/>
<stop offset="1" stop-color="#8173C4"/>
</linearGradient>
<linearGradient id="paint3_linear_547_2208" x1="36" y1="16" x2="48" y2="79" gradientUnits="userSpaceOnUse">
<stop offset="0.192779" stop-color="#FFD7A4"/>
<stop offset="1" stop-color="#8173C4"/>
</linearGradient>
<linearGradient id="paint4_linear_547_2208" x1="36" y1="16" x2="43.5" y2="78.5" gradientUnits="userSpaceOnUse">
<stop offset="0.175631" stop-color="#FFD7A4"/>
<stop offset="1" stop-color="#8173C4"/>
</linearGradient>
<linearGradient id="paint5_linear_547_2208" x1="32" y1="15.5" x2="47.5" y2="79" gradientUnits="userSpaceOnUse">
<stop offset="0.187059" stop-color="#FFD7A4"/>
<stop offset="1" stop-color="#8173C4"/>
</linearGradient>
<clipPath id="clip0_547_2208">
<rect width="95" height="95" fill="white"/>
</clipPath>
</defs>
</svg>
